<svg width="28" height="28" viewBox="0 0 28 28" fill="none" xmlns="http://www.w3.org/2000/svg">
<path fill-rule="evenodd" clip-rule="evenodd" d="M24.2084 8.16663C24.2084 8.39869 24.1162 8.62125 23.9521 8.78534C23.788 8.94944 23.5655 9.04163 23.3334 9.04163H4.66675C4.43468 9.04163 4.21212 8.94944 4.04803 8.78534C3.88394 8.62125 3.79175 8.39869 3.79175 8.16663C3.79175 7.93456 3.88394 7.712 4.04803 7.54791C4.21212 7.38381 4.43468 7.29163 4.66675 7.29163H23.3334C23.5655 7.29163 23.788 7.38381 23.9521 7.54791C24.1162 7.712 24.2084 7.93456 24.2084 8.16663ZM24.2084 14C24.2084 14.232 24.1162 14.4546 23.9521 14.6187C23.788 14.7828 23.5655 14.875 23.3334 14.875H4.66675C4.43468 14.875 4.21212 14.7828 4.04803 14.6187C3.88394 14.4546 3.79175 14.232 3.79175 14C3.79175 13.7679 3.88394 13.5453 4.04803 13.3812C4.21212 13.2171 4.43468 13.125 4.66675 13.125H23.3334C23.5655 13.125 23.788 13.2171 23.9521 13.3812C24.1162 13.5453 24.2084 13.7679 24.2084 14ZM24.2084 19.8333C24.2084 20.0654 24.1162 20.2879 23.9521 20.452C23.788 20.6161 23.5655 20.7083 23.3334 20.7083H4.66675C4.43468 20.7083 4.21212 20.6161 4.04803 20.452C3.88394 20.2879 3.79175 20.0654 3.79175 19.8333C3.79175 19.6012 3.88394 19.3787 4.04803 19.2146C4.21212 19.0505 4.43468 18.9583 4.66675 18.9583H23.3334C23.5655 18.9583 23.788 19.0505 23.9521 19.2146C24.1162 19.3787 24.2084 19.6012 24.2084 19.8333Z" fill="white"/>
</svg>
